<?xml version="1.0" encoding="utf-8"?>
<!-- Generator: Adobe Illustrator 21.0.0, SVG Export Plug-In . SVG Version: 6.00 Build 0)  -->
<svg version="1.1" id="headerLogo" xmlns="http://www.w3.org/2000/svg" xmlns:xlink="http://www.w3.org/1999/xlink" x="0px" y="0px"
	 width="208.4px" height="44.8px" viewBox="0 0 208.4 44.8" style="enable-background:new 0 0 208.4 44.8;" xml:space="preserve">
<style type="text/css">
	.st0{fill:#ffffff;}
	.st1{fill:#F16522;}
</style>
<g>
	<g>
		<path class="st0" d="M13.1,40.3c-1.9,0-3.6-0.4-5.2-1.1c-1.6-0.7-2.9-1.7-4.1-2.9c-1.2-1.2-2-2.7-2.7-4.3c-0.6-1.6-1-3.3-1-5.2
			c0-1.8,0.3-3.5,1-5.1c0.6-1.6,1.5-3,2.7-4.2C5,16.4,6.4,15.4,8,14.7c1.6-0.7,3.3-1.1,5.1-1.1c1.9,0,3.6,0.4,5.2,1.1
			c1.6,0.7,2.9,1.7,4,2.9c1.1,1.2,2,2.6,2.6,4.2c0.6,1.6,0.9,3.3,0.9,5c0,0.3,0,0.5,0,0.8c0,0.3,0,0.4,0,0.5h-22
			c0.1,1.4,0.4,2.7,1,3.8c0.5,1.2,1.2,2.2,2.1,3c0.9,0.9,1.8,1.5,2.9,2c1.1,0.5,2.3,0.7,3.5,0.7c0.8,0,1.6-0.1,2.5-0.3
			c0.8-0.2,1.6-0.5,2.3-0.9c0.7-0.4,1.3-0.9,1.9-1.5c0.6-0.6,1-1.2,1.3-1.9l2.9,0.8c-0.4,1-1,1.8-1.7,2.6c-0.7,0.8-1.6,1.4-2.5,2
			c-1,0.6-2,1-3.2,1.3C15.6,40.1,14.4,40.3,13.1,40.3z M22.6,25.6c-0.1-1.4-0.4-2.6-1-3.8s-1.2-2.1-2.1-2.9
			c-0.8-0.8-1.8-1.5-2.9-1.9c-1.1-0.5-2.3-0.7-3.5-0.7c-1.3,0-2.4,0.2-3.6,0.7c-1.1,0.5-2.1,1.1-2.9,1.9c-0.8,0.8-1.5,1.8-2,3
			c-0.5,1.2-0.8,2.4-0.9,3.7H22.6z"/>
		<path class="st0" d="M51.7,39.8h-3.4V25.5c0-3.1-0.5-5.3-1.4-6.7c-0.9-1.4-2.3-2.1-4.2-2.1c-1,0-2,0.2-3,0.5
			c-1,0.4-1.9,0.9-2.7,1.5c-0.8,0.7-1.6,1.4-2.2,2.3c-0.7,0.9-1.1,1.9-1.4,2.9v15.7h-3.4V14.1h3.1v5.8c1.1-1.9,2.6-3.4,4.5-4.5
			c2-1.2,4.1-1.7,6.4-1.7c1.4,0,2.6,0.3,3.6,0.8c1,0.5,1.8,1.3,2.4,2.2c0.6,1,1,2.1,1.3,3.5c0.3,1.4,0.4,2.9,0.4,4.6V39.8z"/>
		<path class="st0" d="M58.9,39.8v-23h-3.6v-2.7h3.6v-0.7c0-3.2,0.7-5.6,2-7.4c1.3-1.8,3.2-2.7,5.5-2.7c1,0,2,0.1,3,0.4
			c1,0.3,1.8,0.7,2.5,1.2l-1,2.4c-0.5-0.4-1-0.6-1.7-0.8c-0.7-0.2-1.4-0.3-2-0.3c-1.6,0-2.8,0.6-3.6,1.8c-0.8,1.2-1.2,3-1.2,5.3v0.8
			h7.1v2.7h-7.1v23H58.9z"/>
		<path class="st0" d="M105.1,26.9c0-1.8,0.3-3.5,0.9-5.1c0.6-1.6,1.5-3,2.6-4.2c1.1-1.2,2.5-2.1,4.1-2.8c1.6-0.7,3.3-1,5.2-1
			c2.4,0,4.6,0.6,6.4,1.7c1.8,1.1,3.2,2.6,4.1,4.5l-3.3,1c-0.7-1.3-1.7-2.3-3-3.1c-1.3-0.7-2.7-1.1-4.3-1.1c-1.3,0-2.5,0.3-3.7,0.8
			c-1.1,0.5-2.1,1.2-3,2.1c-0.8,0.9-1.5,2-2,3.2c-0.5,1.3-0.7,2.6-0.7,4.1c0,1.4,0.2,2.8,0.7,4.1c0.5,1.3,1.2,2.4,2,3.3
			c0.9,0.9,1.8,1.7,3,2.2c1.1,0.5,2.3,0.8,3.6,0.8c0.8,0,1.6-0.1,2.4-0.3c0.8-0.2,1.6-0.6,2.2-1c0.7-0.4,1.3-0.9,1.8-1.4
			c0.5-0.5,0.8-1.1,1-1.7l3.3,1c-0.4,0.9-0.9,1.8-1.6,2.5c-0.7,0.8-1.5,1.4-2.4,2c-0.9,0.6-2,1-3.1,1.3c-1.1,0.3-2.3,0.5-3.5,0.5
			c-1.9,0-3.6-0.4-5.2-1.1c-1.6-0.7-2.9-1.7-4.1-2.9c-1.2-1.2-2-2.7-2.7-4.3C105.4,30.5,105.1,28.7,105.1,26.9z"/>
		<path class="st0" d="M145.3,38.6c-0.2,0.1-0.5,0.2-0.9,0.4c-0.4,0.2-0.8,0.3-1.3,0.5c-0.5,0.2-1.1,0.3-1.7,0.4
			c-0.6,0.1-1.3,0.2-2,0.2c-0.7,0-1.4-0.1-2.1-0.3c-0.7-0.2-1.2-0.5-1.7-0.9c-0.5-0.4-0.9-0.9-1.2-1.6c-0.3-0.6-0.4-1.3-0.4-2.2
			V16.8h-3.6v-2.7h3.6V5.4h3.4v8.7h5.9v2.7h-5.9v17.5c0.1,1,0.4,1.7,1,2.1c0.6,0.4,1.3,0.7,2.1,0.7c1,0,1.8-0.2,2.5-0.5
			c0.7-0.3,1.2-0.5,1.4-0.7L145.3,38.6z"/>
		<path class="st0" d="M148.6,8.7V3.8h3.4v4.9H148.6z M148.6,39.8V14.1h3.4v25.7H148.6z"/>
		<path class="st0" d="M169.3,40.3c-1.9,0-3.6-0.4-5.1-1.1c-1.5-0.7-2.9-1.7-4-2.9c-1.1-1.2-2-2.6-2.6-4.2c-0.6-1.6-0.9-3.3-0.9-5.1
			c0-1.8,0.3-3.5,1-5.1c0.6-1.6,1.5-3,2.7-4.2c1.1-1.2,2.5-2.2,4-2.9c1.5-0.7,3.2-1.1,5.1-1.1c1.8,0,3.5,0.4,5.1,1.1
			c1.6,0.7,2.9,1.7,4,2.9c1.1,1.2,2,2.6,2.7,4.2c0.6,1.6,1,3.3,1,5.1c0,1.8-0.3,3.5-0.9,5.1c-0.6,1.6-1.5,3-2.6,4.2
			c-1.1,1.2-2.5,2.2-4,2.9C172.9,39.9,171.2,40.3,169.3,40.3z M160,27.1c0,1.4,0.2,2.8,0.7,4c0.5,1.2,1.2,2.3,2,3.3
			c0.8,0.9,1.8,1.7,3,2.2c1.1,0.5,2.3,0.8,3.6,0.8c1.3,0,2.5-0.3,3.6-0.8c1.1-0.5,2.1-1.3,3-2.2c0.9-0.9,1.5-2,2-3.3
			c0.5-1.2,0.7-2.6,0.7-4c0-1.4-0.2-2.8-0.7-4c-0.5-1.3-1.2-2.4-2-3.3c-0.9-0.9-1.8-1.7-3-2.2c-1.1-0.5-2.3-0.8-3.6-0.8
			c-1.3,0-2.5,0.3-3.6,0.8c-1.1,0.5-2.1,1.3-3,2.2c-0.9,1-1.5,2.1-2,3.3C160.3,24.3,160,25.6,160,27.1z"/>
		<path class="st0" d="M208.4,39.8H205V25.5c0-3.1-0.5-5.3-1.4-6.7c-0.9-1.4-2.3-2.1-4.2-2.1c-1,0-2,0.2-3,0.5
			c-1,0.4-1.9,0.9-2.7,1.5c-0.8,0.7-1.6,1.4-2.2,2.3c-0.7,0.9-1.1,1.9-1.4,2.9v15.7h-3.4V14.1h3.1v5.8c1.1-1.9,2.6-3.4,4.5-4.5
			c2-1.2,4.1-1.7,6.4-1.7c1.4,0,2.6,0.3,3.6,0.8c1,0.5,1.8,1.3,2.4,2.2c0.6,1,1,2.1,1.3,3.5c0.3,1.4,0.4,2.9,0.4,4.6V39.8z"/>
	</g>
	<polygon class="st1" points="98.2,32.5 88.2,38.2 78.9,33.1 78.9,21.2 88.2,15.7 94.1,19.2 84.2,24.8 88.3,27.2 102.2,19.2 
		88.3,10.7 74.5,19.2 74.5,34.9 88.2,42.4 102.2,34.8 	"/>
</g>
</svg>
